# xmcd CD database file
#
# Track frame offsets:
#	150
#	14194
#	28252
#	41399
#	53029
#	66840
#	80517
#	92241
#	106878
#	120493
#	134821
#	147017
#
# Disc length: 2230 seconds
#
# Revision: 0
# Processed by: cddbd v1.5.2PL0 Copyright (c) Steve Scherf et al.
# Submitted via: CDex 1.51
#
DISCID=a908b40c
DTITLE=Ella Fitzgerald - Masters of Jazz
DYEAR=2006
DGENRE=Jazz
TTITLE0=I'm making believe (with the Ink Spots)
TTITLE1=Into each life some rain must fall ( with the Ink Spots)
TTITLE2=Cow-cow boogie (with The Ink Spots)
TTITLE3=A-tisket, a-tasket (with Chick Webb and his orchestra)
TTITLE4=Smooth Sailing (with Ray Charles singers and rhythm accompaniment)
TTITLE5=That's my desire (with The Andy Love Quartet)
TTITLE6=I found my yellow basket (with Chick Webb and his orchestra)
TTITLE7=My Happiness (with The Song Spinners)
TTITLE8=My heart and I decided (with The Delta Rhythm Boys)
TTITLE9=(I love you) For sentimental reasons (with The Delta Rhythm Boys)
TTITLE10=Baby it's cold outside (with Louis Jordan and his Tympany Five)
TTITLE11=Mack the knife (Live)
EXTD=YEAR: 2006
EXTT0=
EXTT1=
EXTT2=
EXTT3=
EXTT4=
EXTT5=
EXTT6=
EXTT7=
EXTT8=
EXTT9=
EXTT10=
EXTT11=
PLAYORDER=
